<svg width="76" height="75" viewBox="0 0 76 75" fill="none" xmlns="http://www.w3.org/2000/svg">
<rect x="35.67" width="40" height="40" fill="#006940" fill-opacity="0.1"/>
<g clip-path="url(#clip0_238_29)">
<path d="M63.5118 56.9727L57.7355 49.0381L60.2111 47.3877C61.269 46.7106 61.9567 45.7585 62.274 44.5312C62.5914 43.304 62.4751 42.1191 61.9249 40.9766C61.7557 40.7227 61.5546 40.5005 61.3219 40.3101C61.0892 40.1196 60.8458 39.9821 60.5919 39.8975C60.2957 39.8128 59.9995 39.8022 59.7032 39.8657C59.407 39.9292 59.132 40.0456 58.8781 40.2148L57.6085 41.04C57.1853 40.4899 56.6775 40.0667 56.0851 39.7705C55.4926 39.4743 54.8367 39.3262 54.1173 39.3262C53.4402 39.3262 52.7949 39.4743 52.1813 39.7705C51.5677 40.0667 51.0704 40.4899 50.6896 41.04L49.42 40.2148C49.1661 40.0456 48.8911 39.9292 48.5948 39.8657C48.2986 39.8022 48.0024 39.8128 47.7062 39.8975C47.41 39.9821 47.1455 40.1196 46.9127 40.3101C46.68 40.5005 46.5001 40.7227 46.3732 40.9766C45.823 42.1191 45.7067 43.304 46.024 44.5312C46.3414 45.7585 47.0291 46.7106 48.087 47.3877L50.5626 49.0381L44.8497 56.9092L41.1046 53.1641L43.3898 51.5771C44.4477 50.9001 45.146 49.9479 45.4845 48.7207C45.823 47.4935 45.6961 46.3086 45.1036 45.166C44.9767 44.9121 44.7968 44.6899 44.5641 44.4995C44.3313 44.3091 44.0669 44.1715 43.7706 44.0869C43.4744 44.0023 43.1782 43.9917 42.882 44.0552C42.5857 44.1187 42.3107 44.235 42.0568 44.4043L40.8507 45.2295C40.4275 44.6794 39.9091 44.2668 39.2955 43.9917C38.6819 43.7166 38.0366 43.5791 37.3595 43.5791C36.767 43.5791 36.1958 43.6955 35.6456 43.9282C35.0955 44.161 34.63 44.4889 34.2491 44.9121V39.3262C34.7993 39.3262 35.2859 39.1252 35.7091 38.7231C36.1323 38.3211 36.3439 37.8239 36.3439 37.2314V35.1367C36.3439 35.1367 36.3333 35.1156 36.3121 35.0732C36.291 35.0309 36.2804 34.9886 36.2804 34.9463C36.9152 34.7347 37.4336 34.3644 37.8356 33.8354C38.2376 33.3065 38.4386 32.7035 38.4386 32.0264V31.2012C38.4386 30.6087 38.2799 30.0586 37.9625 29.5508C37.6451 29.043 37.2114 28.6621 36.6613 28.4082L36.5343 28.3447C36.4073 28.2601 36.291 28.1649 36.1852 28.0591C36.0794 27.9533 36.0053 27.8369 35.963 27.71L35.5822 26.4404L37.5499 24.8535L42.2472 26.6943L43.0089 24.7266L39.4542 23.3301L40.3429 22.5684L45.3575 24.5996L46.1193 22.6318L42.2472 21.1084L42.9454 20.4736H52.0226C52.3188 20.4736 52.5727 20.3678 52.7843 20.1562C52.9959 19.9447 53.1017 19.7119 53.1017 19.458V16.2842C53.1017 16.0303 53.0276 15.8081 52.8795 15.6177C52.7314 15.4272 52.5304 15.3109 52.2765 15.2686L48.7218 14.3799L47.8331 10.8252C47.7485 10.5713 47.611 10.3703 47.4205 10.2222C47.2301 10.0741 47.0291 10 46.8175 10H43.6437C43.3898 10 43.1676 10.0846 42.9772 10.2539C42.7867 10.4232 42.6704 10.6348 42.6281 10.8887L41.6124 18.8867L40.9777 19.3945L40.4698 16.1572L38.4386 16.4111L39.0099 20.918L38.0577 21.7432L37.3595 18.1885L35.2648 18.5693L36.2169 23.2031L34.4396 24.6631C34.3973 24.6208 34.3549 24.5785 34.3126 24.5361C34.2703 24.4938 34.228 24.4727 34.1857 24.4727L32.1544 23.1396C31.9005 22.9281 31.6254 22.7799 31.3292 22.6953C31.033 22.6107 30.7368 22.5684 30.4406 22.5684H28.4093C28.3247 22.5684 28.2506 22.5578 28.1871 22.5366C28.1237 22.5155 28.0496 22.4837 27.965 22.4414L27.4572 22.251L31.0753 20.0293V19.458C31.0753 18.2731 30.7368 17.2046 30.0597 16.2524C29.3826 15.3003 28.4939 14.6549 27.3937 14.3164H27.3302L22.3156 10.9521C21.8501 10.6136 21.3528 10.3703 20.8239 10.2222C20.2949 10.0741 19.7553 10 19.2052 10H18.6974C18.1896 10 17.6923 10.0741 17.2057 10.2222C16.719 10.3703 16.2641 10.5713 15.8409 10.8252L4.35168 17.8711C3.92851 18.125 3.53707 18.4424 3.17737 18.8232C2.81767 19.2041 2.53202 19.6273 2.32043 20.0928C2.10885 20.4736 1.96073 20.8757 1.8761 21.2988C1.79146 21.722 1.74915 22.1452 1.74915 22.5684V29.9316C1.74915 30.9896 2.03479 31.9629 2.60608 32.8516C3.17737 33.7402 3.94967 34.3962 4.92297 34.8193C4.88066 34.8617 4.8595 34.9146 4.8595 34.978C4.8595 35.0415 4.8595 35.0944 4.8595 35.1367V37.2314C4.8595 37.8239 5.06051 38.3211 5.46252 38.7231C5.86454 39.1252 6.36178 39.3262 6.95422 39.3262V60.4004C5.17688 60.6543 3.68518 61.4689 2.47913 62.8442C1.27307 64.2196 0.670044 65.8171 0.670044 67.6367C0.670044 69.668 1.38945 71.403 2.82825 72.8418C4.26705 74.2806 6.00208 75 8.03333 75C9.00663 75 9.93762 74.8096 10.8263 74.4287C11.715 74.0479 12.4767 73.54 13.1115 72.9053H29.6788C30.5252 73.54 31.4668 74.0479 32.5035 74.4287C33.5403 74.8096 34.63 75 35.7726 75H38.9464C40.3006 75 41.6124 74.7249 42.882 74.1748C44.1515 73.6247 45.2517 72.863 46.1827 71.8896C47.1984 72.863 48.3727 73.6247 49.7057 74.1748C51.0387 74.7249 52.4458 75 53.9269 75H54.3077C57.4392 75 60.1158 73.8892 62.3375 71.6675C64.5592 69.4458 65.67 66.7692 65.67 63.6377C65.67 62.4528 65.4902 61.2891 65.1305 60.1465C64.7708 59.0039 64.2312 57.946 63.5118 56.9727ZM44.5958 12.0947H45.9923L46.8175 15.5225C46.8598 15.6917 46.955 15.8504 47.1031 15.9985C47.2513 16.1466 47.41 16.2419 47.5792 16.2842L51.007 17.1094V18.3789H43.7706L44.5958 12.0947ZM48.2775 41.9287L51.3878 44.0234L52.0226 42.7539C52.2342 42.3307 52.5304 42.0028 52.9113 41.77C53.2921 41.5373 53.6941 41.4209 54.1173 41.4209C54.5828 41.4209 55.006 41.5373 55.3868 41.77C55.7677 42.0028 56.0428 42.3307 56.212 42.7539L56.8468 44.0234L60.0206 41.9287C60.3592 42.6058 60.4332 43.2935 60.2428 43.9917C60.0524 44.6899 59.6398 45.2507 59.005 45.6738L55.8947 47.7686H52.34L49.2296 45.6738C48.6372 45.2507 48.2457 44.6899 48.0553 43.9917C47.8649 43.2935 47.9389 42.6058 48.2775 41.9287ZM34.63 48.2129L35.2648 46.9434C35.4764 46.5625 35.762 46.2557 36.1217 46.0229C36.4814 45.7902 36.894 45.6738 37.3595 45.6738C37.825 45.6738 38.2376 45.7902 38.5973 46.0229C38.957 46.2557 39.2426 46.5625 39.4542 46.9434L40.089 48.2129L43.2628 46.1182C43.6014 46.7952 43.6754 47.4829 43.485 48.1812C43.2946 48.8794 42.882 49.4401 42.2472 49.8633L39.1368 51.958H35.5822L32.4718 49.8633C31.8794 49.4401 31.4879 48.8794 31.2975 48.1812C31.1071 47.4829 31.16 46.7952 31.4562 46.1182L34.63 48.2129ZM9.04895 47.7686H29.1075C29.1499 48.5303 29.3615 49.2497 29.7423 49.9268C30.1232 50.6038 30.6521 51.154 31.3292 51.5771L33.6144 53.1641L28.7267 58.0518C27.7957 58.9827 27.0763 60.0513 26.5685 61.2573C26.0607 62.4634 25.8068 63.7223 25.8068 65.0342C25.8068 66.1344 25.976 67.1712 26.3146 68.1445C26.6531 69.1178 27.0975 70.0065 27.6476 70.8105H14.6349C14.8465 70.3451 15.0157 69.8478 15.1427 69.3188C15.2697 68.7899 15.3331 68.2292 15.3331 67.6367C15.3331 65.8171 14.7301 64.2196 13.524 62.8442C12.318 61.4689 10.8263 60.6543 9.04895 60.4004V47.7686ZM6.95422 37.2314V35.1367H34.2491V37.2314H6.95422ZM27.0128 24.3457C27.2244 24.4727 27.4466 24.5573 27.6793 24.5996C27.9121 24.6419 28.1554 24.6631 28.4093 24.6631H30.4406C30.5252 24.6631 30.6204 24.6842 30.7262 24.7266C30.832 24.7689 30.9272 24.8112 31.0118 24.8535L33.0431 26.1865C33.1277 26.2712 33.2124 26.3558 33.297 26.4404C33.3816 26.5251 33.424 26.6309 33.424 26.7578L33.9952 28.4082C34.1222 28.7891 34.3232 29.1382 34.5983 29.4556C34.8733 29.7729 35.2013 30.0163 35.5822 30.1855L35.7091 30.249C35.9207 30.376 36.0794 30.5241 36.1852 30.6934C36.291 30.8626 36.3439 31.0319 36.3439 31.2012V32.0264C36.3439 32.3226 36.2381 32.5659 36.0265 32.7563C35.8149 32.9468 35.561 33.042 35.2648 33.042H9.62024L25.3624 23.5205L27.0128 24.3457ZM3.84387 22.5684C3.84387 22.3145 3.86503 22.0605 3.90735 21.8066C3.94967 21.5527 4.0343 21.2988 4.16125 21.0449C4.33053 20.7487 4.52096 20.4842 4.73254 20.2515C4.94413 20.0187 5.17688 19.8177 5.43079 19.6484L16.92 12.6025C17.174 12.4333 17.4596 12.3063 17.777 12.2217C18.0944 12.137 18.4012 12.0947 18.6974 12.0947H19.2052C19.5437 12.0947 19.8823 12.1476 20.2208 12.2534C20.5594 12.3592 20.8556 12.4967 21.1095 12.666L24.9181 15.2051L3.84387 28.0273V22.5684ZM27.0128 16.4111C27.5206 16.6227 27.9438 16.9507 28.2823 17.395C28.6209 17.8394 28.8325 18.3366 28.9171 18.8867L5.81165 32.9785C5.30383 32.7246 4.87008 32.3861 4.51038 31.9629C4.15068 31.5397 3.92851 31.0531 3.84387 30.5029L27.0128 16.4111ZM32.0909 39.3262V44.1504C31.9217 44.0658 31.7418 44.0234 31.5514 44.0234C31.361 44.0234 31.16 44.0446 30.9484 44.0869C30.6521 44.1715 30.3877 44.3091 30.1549 44.4995C29.9222 44.6899 29.7423 44.9121 29.6154 45.166C29.573 45.2507 29.5413 45.3353 29.5201 45.4199C29.499 45.5046 29.4672 45.5892 29.4249 45.6738H9.04895V39.3262H32.0909ZM8.03333 72.9053C6.55221 72.9053 5.30383 72.3975 4.28821 71.3818C3.27258 70.3662 2.76477 69.1178 2.76477 67.6367C2.76477 66.1979 3.27258 64.9707 4.28821 63.9551C5.30383 62.9395 6.55221 62.4316 8.03333 62.4316C9.47213 62.4316 10.6993 62.9395 11.715 63.9551C12.7306 64.9707 13.2384 66.1979 13.2384 67.6367C13.2384 69.1178 12.7306 70.3662 11.715 71.3818C10.6993 72.3975 9.47213 72.9053 8.03333 72.9053ZM38.9464 72.9053H35.7726C33.6144 72.9053 31.763 72.133 30.2184 70.5884C28.6738 69.0438 27.9015 67.1924 27.9015 65.0342C27.9015 64.0186 28.1025 63.0241 28.5045 62.0508C28.9065 61.0775 29.4884 60.2311 30.2501 59.5117L35.7091 54.0527H39.0099L43.7072 58.75C43.3686 59.5117 43.1041 60.3052 42.9137 61.1304C42.7233 61.9556 42.6281 62.7913 42.6281 63.6377C42.6281 64.9072 42.8185 66.1027 43.1993 67.2241C43.5802 68.3455 44.1092 69.3717 44.7863 70.3027C44.0245 71.1068 43.1359 71.7415 42.1202 72.207C41.1046 72.6725 40.0467 72.9053 38.9464 72.9053ZM54.3077 72.9053H53.9269C51.3878 72.9053 49.219 72.006 47.4205 70.2075C45.622 68.409 44.7228 66.2191 44.7228 63.6377C44.7228 62.6644 44.8709 61.7228 45.1671 60.813C45.4633 59.9032 45.9077 59.0462 46.5001 58.2422L52.5939 49.8633H55.7042L61.798 58.2422C62.3904 59.0462 62.8348 59.9032 63.131 60.813C63.4272 61.7228 63.5753 62.6644 63.5753 63.6377C63.5753 66.2191 62.6761 68.409 60.8776 70.2075C59.0791 72.006 56.8891 72.9053 54.3077 72.9053ZM48.7853 58.623L50.3087 56.5283L51.9591 57.7979L50.4357 59.8926L48.7853 58.623ZM48.9122 63.6377C48.9122 63.3415 48.944 63.0347 49.0074 62.7173C49.0709 62.3999 49.1661 62.0931 49.2931 61.7969L47.3253 60.9717C47.156 61.3949 47.0291 61.8286 46.9445 62.2729C46.8598 62.7173 46.8175 63.1722 46.8175 63.6377C46.8175 65.6266 47.5157 67.3193 48.9122 68.7158C50.3087 70.1123 51.9803 70.8105 53.9269 70.8105H54.1173V68.7158H53.9269C52.5304 68.7158 51.3455 68.2186 50.3722 67.2241C49.3989 66.2297 48.9122 65.0342 48.9122 63.6377ZM35.6456 60.0195L34.1857 58.5596L31.7101 60.9717C31.16 61.5218 30.7368 62.146 30.4406 62.8442C30.1443 63.5425 29.9962 64.2725 29.9962 65.0342C29.9962 65.7113 30.1126 66.3566 30.3453 66.9702C30.5781 67.5838 30.906 68.1445 31.3292 68.6523L32.9161 67.3828C32.6622 67.0443 32.4612 66.674 32.3131 66.272C32.165 65.87 32.0909 65.4574 32.0909 65.0342C32.0909 64.5687 32.1862 64.1138 32.3766 63.6694C32.567 63.2251 32.8315 62.8337 33.17 62.4951L35.6456 60.0195ZM34.5665 68.5254L33.8683 70.4932C34.1645 70.5778 34.4713 70.6519 34.7887 70.7153C35.1061 70.7788 35.434 70.8105 35.7726 70.8105H36.3439V68.7158H35.7726C35.561 68.7158 35.36 68.6947 35.1696 68.6523C34.9791 68.61 34.7781 68.5677 34.5665 68.5254ZM8.03333 64.5264C7.14465 64.5264 6.39351 64.8332 5.77991 65.4468C5.1663 66.0604 4.8595 66.7904 4.8595 67.6367C4.8595 68.5254 5.1663 69.2765 5.77991 69.8901C6.39351 70.5037 7.14465 70.8105 8.03333 70.8105C8.87968 70.8105 9.60966 70.5037 10.2233 69.8901C10.8369 69.2765 11.1437 68.5254 11.1437 67.6367C11.1437 66.7904 10.8369 66.0604 10.2233 65.4468C9.60966 64.8332 8.87968 64.5264 8.03333 64.5264ZM8.03333 68.7158C7.7371 68.7158 7.48319 68.61 7.27161 68.3984C7.06002 68.1868 6.95422 67.9329 6.95422 67.6367C6.95422 67.3828 7.06002 67.1501 7.27161 66.9385C7.48319 66.7269 7.7371 66.6211 8.03333 66.6211C8.28723 66.6211 8.51998 66.7269 8.73157 66.9385C8.94316 67.1501 9.04895 67.3828 9.04895 67.6367C9.04895 67.9329 8.94316 68.1868 8.73157 68.3984C8.51998 68.61 8.28723 68.7158 8.03333 68.7158ZM18.507 28.8525H20.6017V30.9473H18.507V28.8525ZM26.8859 26.7578H28.9806V28.8525H26.8859V26.7578ZM31.0753 29.9316H33.17V32.0264H31.0753V29.9316ZM22.6964 26.7578H24.7911V28.8525H22.6964V26.7578Z" fill="white"/>
</g>
<defs>
<clipPath id="clip0_238_29">
<rect width="65" height="65" fill="white" transform="matrix(1 0 0 -1 0.670044 75)"/>
</clipPath>
</defs>
</svg>
