<svg width="76" height="75" viewBox="0 0 76 75" fill="none" xmlns="http://www.w3.org/2000/svg">
<rect x="35.3301" width="40" height="40" fill="#006940" fill-opacity="0.1"/>
<g clip-path="url(#clip0_238_38)">
<path d="M54.0947 17.998C54.0947 17.067 53.7668 16.2736 53.1108 15.6177C52.4549 14.9617 51.6615 14.6338 50.7305 14.6338H47.4297C47.4297 13.7028 47.0911 12.9093 46.4141 12.2534C45.737 11.5975 44.9541 11.2695 44.0654 11.2695C43.1344 11.2695 42.341 11.5975 41.6851 12.2534C41.0291 12.9093 40.7012 13.7028 40.7012 14.6338H36.1943C36.1943 13.7028 35.8664 12.9093 35.2104 12.2534C34.5545 11.5975 33.7611 11.2695 32.8301 11.2695C31.8991 11.2695 31.1056 11.5975 30.4497 12.2534C29.7938 12.9093 29.4658 13.7028 29.4658 14.6338H24.959C24.959 13.7028 24.631 12.9093 23.9751 12.2534C23.3192 11.5975 22.5257 11.2695 21.5947 11.2695C20.7061 11.2695 19.9232 11.5975 19.2461 12.2534C18.569 12.9093 18.2305 13.7028 18.2305 14.6338H13.7871C13.7871 13.7028 13.4591 12.9093 12.8032 12.2534C12.1473 11.5975 11.3538 11.2695 10.4229 11.2695C9.49186 11.2695 8.6984 11.5975 8.04248 12.2534C7.38656 12.9093 7.05859 13.7028 7.05859 14.6338H3.69434C2.76335 14.6338 1.96989 14.9617 1.31396 15.6177C0.65804 16.2736 0.330078 17.067 0.330078 17.998V65.0342C0.330078 65.3727 0.435872 65.6478 0.647461 65.8594C0.859049 66.071 1.13411 66.1767 1.47266 66.1767H4.83691V69.541C4.83691 69.8372 4.94271 70.1017 5.1543 70.3345C5.36589 70.5672 5.61979 70.6836 5.91602 70.6836H35.4326C35.4326 70.6836 35.4432 70.673 35.4644 70.6518C35.4855 70.6307 35.4961 70.6201 35.4961 70.6201C36.9772 71.678 38.543 72.4821 40.1934 73.0322C41.8861 73.5823 43.5999 73.8997 45.335 73.9844C47.07 74.069 48.805 73.9209 50.54 73.54C52.2327 73.1592 53.8831 72.5244 55.4912 71.6357C57.057 70.7894 58.4746 69.7314 59.7441 68.4619C60.9714 67.2347 62.0081 65.8594 62.8545 64.3359C63.7008 62.8125 64.3356 61.2044 64.7588 59.5117C65.182 57.7767 65.3724 56.0205 65.3301 54.2432C65.2454 52.4235 64.9281 50.6673 64.3779 48.9746C63.8278 47.3242 63.0661 45.7796 62.0928 44.3408C61.1195 42.902 59.9557 41.6113 58.6016 40.4687C57.2474 39.3262 55.7451 38.374 54.0947 37.6123V17.998ZM42.9229 14.6338C42.9229 14.3376 43.0286 14.0731 43.2402 13.8403C43.4518 13.6076 43.7269 13.4912 44.0654 13.4912C44.3617 13.4912 44.6156 13.6076 44.8271 13.8403C45.0387 14.0731 45.1445 14.3376 45.1445 14.6338V17.998H42.9229V14.6338ZM31.6875 14.6338C31.6875 14.3376 31.8039 14.0731 32.0366 13.8403C32.2694 13.6076 32.5339 13.4912 32.8301 13.4912C33.1263 13.4912 33.3908 13.6076 33.6235 13.8403C33.8563 14.0731 33.9727 14.3376 33.9727 14.6338V17.998H31.6875V14.6338ZM20.5156 14.6338C20.5156 14.3376 20.6214 14.0731 20.833 13.8403C21.0446 13.6076 21.2985 13.4912 21.5947 13.4912C21.9333 13.4912 22.2083 13.6076 22.4199 13.8403C22.6315 14.0731 22.7373 14.3376 22.7373 14.6338V17.998H20.5156V14.6338ZM9.28027 14.6338C9.28027 14.3376 9.39665 14.0731 9.62939 13.8403C9.86214 13.6076 10.1266 13.4912 10.4229 13.4912C10.7191 13.4912 10.9836 13.6076 11.2163 13.8403C11.4491 14.0731 11.5654 14.3376 11.5654 14.6338V17.998H9.28027V14.6338ZM2.55176 17.998C2.55176 17.6595 2.66813 17.3844 2.90088 17.1728C3.13363 16.9613 3.39811 16.8555 3.69434 16.8555H7.05859V19.0771C7.05859 19.4157 7.16439 19.6907 7.37598 19.9023C7.58757 20.1139 7.86263 20.2197 8.20117 20.2197H12.6445C12.9831 20.2197 13.2581 20.1139 13.4697 19.9023C13.6813 19.6907 13.7871 19.4157 13.7871 19.0771V16.8555H18.2305V19.0771C18.2305 19.4157 18.3468 19.6907 18.5796 19.9023C18.8123 20.1139 19.0768 20.2197 19.373 20.2197H23.8799C24.1761 20.2197 24.43 20.1139 24.6416 19.9023C24.8532 19.6907 24.959 19.4157 24.959 19.0771V16.8555H29.4658V19.0771C29.4658 19.4157 29.5716 19.6907 29.7832 19.9023C29.9948 20.1139 30.2699 20.2197 30.6084 20.2197H35.0518C35.3903 20.2197 35.6654 20.1139 35.877 19.9023C36.0885 19.6907 36.1943 19.4157 36.1943 19.0771V16.8555H40.7012V19.0771C40.7012 19.4157 40.807 19.6907 41.0186 19.9023C41.2301 20.1139 41.484 20.2197 41.7803 20.2197H46.2871C46.5833 20.2197 46.8478 20.1139 47.0806 19.9023C47.3133 19.6907 47.4297 19.4157 47.4297 19.0771V16.8555H50.7305C51.069 16.8555 51.3441 16.9613 51.5557 17.1728C51.7673 17.3844 51.873 17.6595 51.873 17.998V23.584H2.55176V17.998ZM7.05859 66.1767H30.9258C31.1797 66.5576 31.4653 66.9385 31.7827 67.3193C32.1001 67.7002 32.4281 68.0599 32.7666 68.3984H7.05859V66.1767ZM63.1084 54.9414C63.1084 57.2689 62.6641 59.4482 61.7754 61.4795C60.8867 63.553 59.6807 65.3516 58.1572 66.875C56.6338 68.3984 54.8564 69.5833 52.8252 70.4297C50.7939 71.3183 48.6146 71.7627 46.2871 71.7627C43.9596 71.7627 41.7803 71.3183 39.749 70.4297C37.7178 69.5833 35.9404 68.3984 34.417 66.875C32.8936 65.3516 31.6875 63.553 30.7988 61.4795C29.9102 59.4482 29.4658 57.2689 29.4658 54.9414C29.4658 52.6562 29.9102 50.4769 30.7988 48.4033C31.6875 46.3721 32.8936 44.5947 34.417 43.0713C35.9404 41.5478 37.7178 40.3418 39.749 39.4531C41.7803 38.6068 43.9596 38.1836 46.2871 38.1836C48.6146 38.1836 50.7939 38.6068 52.8252 39.4531C54.8564 40.3418 56.6338 41.5478 58.1572 43.0713C59.6807 44.5947 60.8867 46.3721 61.7754 48.4033C62.6641 50.4769 63.1084 52.6562 63.1084 54.9414ZM46.2871 35.8984C42.944 35.8984 39.8125 36.7236 36.8926 38.374C33.9727 40.0244 31.6452 42.2884 29.9102 45.166C28.2174 48.0436 27.3288 51.154 27.2441 54.4971C27.1595 57.8402 27.9001 60.9928 29.4658 63.9551H2.55176V25.8057H51.873V36.7871C50.9844 36.4909 50.064 36.2687 49.1118 36.1206C48.1597 35.9725 47.2181 35.8984 46.2871 35.8984ZM10.4229 30.3125C9.49186 30.3125 8.6984 30.6405 8.04248 31.2964C7.38656 31.9523 7.05859 32.7458 7.05859 33.6767C7.05859 34.6077 7.38656 35.4012 8.04248 36.0571C8.6984 36.713 9.49186 37.041 10.4229 37.041C11.3538 37.041 12.1473 36.713 12.8032 36.0571C13.4591 35.4012 13.7871 34.6077 13.7871 33.6767C13.7871 32.7458 13.4591 31.9523 12.8032 31.2964C12.1473 30.6405 11.3538 30.3125 10.4229 30.3125ZM10.4229 34.8193C10.1266 34.8193 9.86214 34.703 9.62939 34.4702C9.39665 34.2375 9.28027 33.973 9.28027 33.6767C9.28027 33.3805 9.39665 33.116 9.62939 32.8833C9.86214 32.6505 10.1266 32.5342 10.4229 32.5342C10.7191 32.5342 10.9836 32.6505 11.2163 32.8833C11.4491 33.116 11.5654 33.3805 11.5654 33.6767C11.5654 33.973 11.4491 34.2375 11.2163 34.4702C10.9836 34.703 10.7191 34.8193 10.4229 34.8193ZM21.5947 30.3125C20.7061 30.3125 19.9232 30.6405 19.2461 31.2964C18.569 31.9523 18.2305 32.7458 18.2305 33.6767C18.2305 34.6077 18.569 35.4012 19.2461 36.0571C19.9232 36.713 20.7061 37.041 21.5947 37.041C22.5257 37.041 23.3192 36.713 23.9751 36.0571C24.631 35.4012 24.959 34.6077 24.959 33.6767C24.959 32.7458 24.631 31.9523 23.9751 31.2964C23.3192 30.6405 22.5257 30.3125 21.5947 30.3125ZM21.5947 34.8193C21.2985 34.8193 21.0446 34.703 20.833 34.4702C20.6214 34.2375 20.5156 33.973 20.5156 33.6767C20.5156 33.3805 20.6214 33.116 20.833 32.8833C21.0446 32.6505 21.2985 32.5342 21.5947 32.5342C21.9333 32.5342 22.2083 32.6505 22.4199 32.8833C22.6315 33.116 22.7373 33.3805 22.7373 33.6767C22.7373 33.973 22.6315 34.2375 22.4199 34.4702C22.2083 34.703 21.9333 34.8193 21.5947 34.8193ZM32.8301 30.3125C31.8991 30.3125 31.1056 30.6405 30.4497 31.2964C29.7938 31.9523 29.4658 32.7458 29.4658 33.6767C29.4658 34.6077 29.7938 35.4012 30.4497 36.0571C31.1056 36.713 31.8991 37.041 32.8301 37.041C33.7611 37.041 34.5545 36.713 35.2104 36.0571C35.8664 35.4012 36.1943 34.6077 36.1943 33.6767C36.1943 32.7458 35.8664 31.9523 35.2104 31.2964C34.5545 30.6405 33.7611 30.3125 32.8301 30.3125ZM32.8301 34.8193C32.5339 34.8193 32.2694 34.703 32.0366 34.4702C31.8039 34.2375 31.6875 33.973 31.6875 33.6767C31.6875 33.3805 31.8039 33.116 32.0366 32.8833C32.2694 32.6505 32.5339 32.5342 32.8301 32.5342C33.1263 32.5342 33.3908 32.6505 33.6235 32.8833C33.8563 33.116 33.9727 33.3805 33.9727 33.6767C33.9727 33.973 33.8563 34.2375 33.6235 34.4702C33.3908 34.703 33.1263 34.8193 32.8301 34.8193ZM10.4229 39.2627C9.49186 39.2627 8.6984 39.5906 8.04248 40.2466C7.38656 40.9025 7.05859 41.696 7.05859 42.6269C7.05859 43.5579 7.38656 44.3514 8.04248 45.0073C8.6984 45.6632 9.49186 45.9912 10.4229 45.9912C11.3538 45.9912 12.1473 45.6632 12.8032 45.0073C13.4591 44.3514 13.7871 43.5579 13.7871 42.6269C13.7871 41.696 13.4591 40.9025 12.8032 40.2466C12.1473 39.5906 11.3538 39.2627 10.4229 39.2627ZM10.4229 43.7695C10.1266 43.7695 9.86214 43.6637 9.62939 43.4521C9.39665 43.2405 9.28027 42.9655 9.28027 42.6269C9.28027 42.3307 9.39665 42.0768 9.62939 41.8652C9.86214 41.6536 10.1266 41.5478 10.4229 41.5478C10.7191 41.5478 10.9836 41.6536 11.2163 41.8652C11.4491 42.0768 11.5654 42.3307 11.5654 42.6269C11.5654 42.9655 11.4491 43.2405 11.2163 43.4521C10.9836 43.6637 10.7191 43.7695 10.4229 43.7695ZM21.5947 39.2627C20.7061 39.2627 19.9232 39.5906 19.2461 40.2466C18.569 40.9025 18.2305 41.696 18.2305 42.6269C18.2305 43.5579 18.569 44.3514 19.2461 45.0073C19.9232 45.6632 20.7061 45.9912 21.5947 45.9912C22.5257 45.9912 23.3192 45.6632 23.9751 45.0073C24.631 44.3514 24.959 43.5579 24.959 42.6269C24.959 41.696 24.631 40.9025 23.9751 40.2466C23.3192 39.5906 22.5257 39.2627 21.5947 39.2627ZM21.5947 43.7695C21.2985 43.7695 21.0446 43.6637 20.833 43.4521C20.6214 43.2405 20.5156 42.9655 20.5156 42.6269C20.5156 42.3307 20.6214 42.0768 20.833 41.8652C21.0446 41.6536 21.2985 41.5478 21.5947 41.5478C21.9333 41.5478 22.2083 41.6536 22.4199 41.8652C22.6315 42.0768 22.7373 42.3307 22.7373 42.6269C22.7373 42.9655 22.6315 43.2405 22.4199 43.4521C22.2083 43.6637 21.9333 43.7695 21.5947 43.7695ZM10.4229 48.2129C9.49186 48.2129 8.6984 48.5514 8.04248 49.2285C7.38656 49.9056 7.05859 50.6885 7.05859 51.5771C7.05859 52.5081 7.38656 53.3016 8.04248 53.9575C8.6984 54.6134 9.49186 54.9414 10.4229 54.9414C11.3538 54.9414 12.1473 54.6134 12.8032 53.9575C13.4591 53.3016 13.7871 52.5081 13.7871 51.5771C13.7871 50.6885 13.4591 49.9056 12.8032 49.2285C12.1473 48.5514 11.3538 48.2129 10.4229 48.2129ZM10.4229 52.7197C10.1266 52.7197 9.86214 52.6139 9.62939 52.4023C9.39665 52.1907 9.28027 51.9157 9.28027 51.5771C9.28027 51.2809 9.39665 51.027 9.62939 50.8154C9.86214 50.6038 10.1266 50.498 10.4229 50.498C10.7191 50.498 10.9836 50.6038 11.2163 50.8154C11.4491 51.027 11.5654 51.2809 11.5654 51.5771C11.5654 51.9157 11.4491 52.1907 11.2163 52.4023C10.9836 52.6139 10.7191 52.7197 10.4229 52.7197ZM21.5947 48.2129C20.7061 48.2129 19.9232 48.5514 19.2461 49.2285C18.569 49.9056 18.2305 50.6885 18.2305 51.5771C18.2305 52.5081 18.569 53.3016 19.2461 53.9575C19.9232 54.6134 20.7061 54.9414 21.5947 54.9414C22.5257 54.9414 23.3192 54.6134 23.9751 53.9575C24.631 53.3016 24.959 52.5081 24.959 51.5771C24.959 50.6885 24.631 49.9056 23.9751 49.2285C23.3192 48.5514 22.5257 48.2129 21.5947 48.2129ZM21.5947 52.7197C21.2985 52.7197 21.0446 52.6139 20.833 52.4023C20.6214 52.1907 20.5156 51.9157 20.5156 51.5771C20.5156 51.2809 20.6214 51.027 20.833 50.8154C21.0446 50.6038 21.2985 50.498 21.5947 50.498C21.9333 50.498 22.2083 50.6038 22.4199 50.8154C22.6315 51.027 22.7373 51.2809 22.7373 51.5771C22.7373 51.9157 22.6315 52.1907 22.4199 52.4023C22.2083 52.6139 21.9333 52.7197 21.5947 52.7197ZM31.6875 54.9414C31.6875 56.9726 32.0684 58.8769 32.8301 60.6543C33.5918 62.4316 34.6392 63.9762 35.9722 65.2881C37.3052 66.5999 38.8604 67.6367 40.6377 68.3984C42.3727 69.1601 44.2559 69.541 46.2871 69.541C48.276 69.541 50.1592 69.1601 51.9365 68.3984C53.7139 67.6367 55.2585 66.5999 56.5703 65.2881C57.8822 63.9762 58.9189 62.4316 59.6807 60.6543C60.4424 58.8769 60.8232 56.9726 60.8232 54.9414C60.8232 52.9525 60.4424 51.0693 59.6807 49.292C58.9189 47.5146 57.8822 45.97 56.5703 44.6582C55.2585 43.3463 53.7139 42.3096 51.9365 41.5478C50.1592 40.7861 48.276 40.4053 46.2871 40.4053C44.2559 40.4053 42.3727 40.7861 40.6377 41.5478C38.8604 42.3096 37.3158 43.3463 36.0039 44.6582C34.6921 45.97 33.6341 47.5146 32.8301 49.292C32.0684 51.0693 31.6875 52.9525 31.6875 54.9414ZM58.6016 54.9414H56.3799C56.0413 54.9414 55.7663 55.0578 55.5547 55.2905C55.3431 55.5233 55.2373 55.7877 55.2373 56.084C55.2373 56.3802 55.3431 56.6447 55.5547 56.8774C55.7663 57.1102 56.0413 57.2266 56.3799 57.2266H58.4111C57.9033 59.9349 56.6232 62.22 54.5708 64.082C52.5184 65.944 50.138 67.0019 47.4297 67.2558V65.0342C47.4297 64.7379 47.3133 64.484 47.0806 64.2725C46.8478 64.0609 46.5833 63.9551 46.2871 63.9551C45.9909 63.9551 45.7264 64.0609 45.4937 64.2725C45.2609 64.484 45.1445 64.7379 45.1445 65.0342V67.2558C42.3939 67.0019 40.0029 65.944 37.9717 64.082C35.9404 62.22 34.6709 59.9349 34.1631 57.2266H36.1943C36.4906 57.2266 36.755 57.1102 36.9878 56.8774C37.2205 56.6447 37.3369 56.3802 37.3369 56.084C37.3369 55.7877 37.2205 55.5233 36.9878 55.2905C36.755 55.0578 36.4906 54.9414 36.1943 54.9414H33.9727C33.9727 51.7676 35.0412 49.0063 37.1782 46.6577C39.3153 44.3091 41.9707 42.9866 45.1445 42.6904V44.9121C45.1445 45.2083 45.2609 45.4622 45.4937 45.6738C45.7264 45.8854 45.9909 45.9912 46.2871 45.9912C46.5833 45.9912 46.8478 45.8854 47.0806 45.6738C47.3133 45.4622 47.4297 45.2083 47.4297 44.9121V42.6904C50.5612 42.9866 53.2061 44.3091 55.3643 46.6577C57.5225 49.0063 58.6016 51.7676 58.6016 54.9414ZM46.541 54.4336L44.9541 52.0849C44.7848 51.831 44.5521 51.6724 44.2559 51.6089C43.9596 51.5454 43.6846 51.5983 43.4307 51.7676C43.1768 51.9368 43.0181 52.1802 42.9546 52.4975C42.8911 52.8149 42.944 53.1006 43.1133 53.3545L45.335 56.7187C45.4196 56.8457 45.536 56.9515 45.6841 57.0361C45.8322 57.1208 45.9697 57.1842 46.0967 57.2266C46.139 57.2266 46.1707 57.2266 46.1919 57.2266C46.2131 57.2266 46.2448 57.2266 46.2871 57.2266C46.4141 57.2266 46.541 57.2054 46.668 57.1631C46.7949 57.1208 46.9007 57.0573 46.9854 56.9726L53.7139 51.3232C53.9678 51.154 54.1053 50.9106 54.1265 50.5932C54.1476 50.2759 54.0524 49.9902 53.8408 49.7363C53.6715 49.5247 53.4282 49.4084 53.1108 49.3872C52.7935 49.366 52.529 49.4401 52.3174 49.6094L46.541 54.4336Z" fill="white"/>
</g>
<defs>
<clipPath id="clip0_238_38">
<rect width="65" height="65" fill="white" transform="matrix(1 0 0 -1 0.330078 75)"/>
</clipPath>
</defs>
</svg>
