<svg width="75" height="75" viewBox="0 0 75 75" fill="none" xmlns="http://www.w3.org/2000/svg">
<rect x="35.01" width="40" height="40" fill="#006940" fill-opacity="0.1"/>
<g clip-path="url(#clip0_238_20)">
<path d="M62.8772 29.4873H61.6077C61.8193 28.8102 61.851 28.1331 61.7029 27.456C61.5548 26.779 61.248 26.1654 60.7825 25.6152C60.3593 25.1074 59.8303 24.716 59.1956 24.4409C58.5608 24.1658 57.8837 24.0495 57.1643 24.0918C56.7411 22.3568 55.8525 20.8968 54.4983 19.7119C53.1441 18.527 51.5784 17.8499 49.801 17.6807C49.1663 16.5381 48.3199 15.5859 47.262 14.8242C46.204 14.0625 45.0191 13.5758 43.7073 13.3643C42.9879 12.3909 42.078 11.6081 40.9778 11.0156C39.8775 10.4232 38.7138 10.0846 37.4866 9.99999C36.2594 9.91536 35.0639 10.0846 33.9001 10.5078C32.7364 10.931 31.7102 11.5869 30.8215 12.4756C29.8059 12.0524 28.7903 12.0418 27.7747 12.4438C26.759 12.8459 25.9973 13.5335 25.4895 14.5068C23.6698 14.1683 21.9242 14.3799 20.2527 15.1416C18.5811 15.9033 17.2799 17.0882 16.3489 18.6963C14.3599 18.654 12.5826 19.2464 11.0168 20.4736C9.45109 21.7008 8.41431 23.2666 7.90649 25.1709C7.31405 25.1286 6.73218 25.2132 6.16089 25.4248C5.5896 25.6364 5.09237 25.9326 4.66919 26.3135C4.20369 26.7366 3.85457 27.2233 3.62183 27.7734C3.38908 28.3236 3.27271 28.8949 3.27271 29.4873H2.1936C1.60116 29.4873 1.09334 29.6989 0.670166 30.1221C0.246989 30.5452 0.0354004 31.0531 0.0354004 31.6455V33.8037C0.0354004 34.4385 0.246989 34.9674 0.670166 35.3906C1.09334 35.8138 1.60116 36.0254 2.1936 36.0254H2.25708L4.35181 60.9717V64.2725C2.99764 64.5687 1.90796 65.2775 1.08276 66.3989C0.257568 67.5203 -0.0915527 68.7581 0.0354004 70.1123C0.204671 71.5088 0.797119 72.6725 1.81274 73.6035C2.82837 74.5345 4.03442 75 5.43091 75C6.82739 75 8.04403 74.5345 9.08081 73.6035C10.1176 72.6725 10.6995 71.5088 10.8264 70.1123C10.9957 68.7581 10.6677 67.5203 9.84253 66.3989C9.01733 65.2775 7.90649 64.5687 6.51001 64.2725V61.9873H12.3499L13.6194 64.5264C13.9156 65.0765 14.3176 65.5208 14.8254 65.8594C15.3333 66.1979 15.9045 66.346 16.5393 66.3037H48.5315C49.1663 66.346 49.7375 66.1979 50.2454 65.8594C50.7532 65.5208 51.1552 65.0765 51.4514 64.5264L52.7209 61.9873H58.5608V64.2725C57.1643 64.5687 56.0535 65.2775 55.2283 66.3989C54.4031 67.5203 54.0751 68.7581 54.2444 70.1123C54.3713 71.5088 54.9532 72.6725 55.99 73.6035C57.0268 74.5345 58.2434 75 59.6399 75C61.0364 75 62.2424 74.5345 63.2581 73.6035C64.2737 72.6725 64.8661 71.5088 65.0354 70.1123C65.1624 68.7581 64.8132 67.5203 63.988 66.3989C63.1628 65.2775 62.0732 64.5687 60.719 64.2725V60.9717L62.7502 36.0254H62.8772C63.4696 36.0254 63.9775 35.8138 64.4006 35.3906C64.8238 34.9674 65.0354 34.4385 65.0354 33.8037V31.6455C65.0354 31.0531 64.8238 30.5452 64.4006 30.1221C63.9775 29.6989 63.4696 29.4873 62.8772 29.4873ZM8.35083 27.456C8.5201 27.5407 8.68937 27.5724 8.85864 27.5513C9.02791 27.5301 9.17603 27.4772 9.30298 27.3926C9.47225 27.3079 9.5992 27.1916 9.68384 27.0435C9.76847 26.8953 9.81079 26.7366 9.81079 26.5674C10.0224 24.9593 10.7418 23.6051 11.969 22.5049C13.1962 21.4046 14.635 20.8545 16.2854 20.8545C16.37 20.8545 16.4653 20.8545 16.571 20.8545C16.6768 20.8545 16.7932 20.8545 16.9202 20.8545C17.1318 20.8968 17.3433 20.8545 17.5549 20.7275C17.7665 20.6006 17.9146 20.4313 17.9993 20.2197C18.6764 18.7809 19.7555 17.7336 21.2366 17.0776C22.7177 16.4217 24.2411 16.3265 25.8069 16.792C25.9338 16.8343 26.0714 16.8449 26.2195 16.8237C26.3676 16.8026 26.5263 16.7708 26.6956 16.7285C26.8225 16.6439 26.9283 16.5381 27.0129 16.4111C27.0976 16.2842 27.1611 16.1572 27.2034 16.0303C27.288 15.6494 27.4361 15.332 27.6477 15.0781C27.8593 14.8242 28.1344 14.6338 28.4729 14.5068C28.8114 14.3799 29.1606 14.327 29.5203 14.3481C29.88 14.3693 30.2079 14.4857 30.5042 14.6973C30.7157 14.8242 30.9591 14.8771 31.2341 14.8559C31.5092 14.8348 31.7314 14.7184 31.9006 14.5068C32.5354 13.7028 33.3183 13.0998 34.2493 12.6977C35.1803 12.2957 36.1536 12.1159 37.1692 12.1582C38.1848 12.2005 39.137 12.4756 40.0256 12.9834C40.9143 13.4912 41.6549 14.1683 42.2473 15.0146C42.3319 15.1416 42.4377 15.2474 42.5647 15.332C42.6917 15.4167 42.8398 15.459 43.009 15.459C44.1093 15.5859 45.1249 15.9774 46.0559 16.6333C46.9869 17.2892 47.6851 18.125 48.1506 19.1406C48.2353 19.3099 48.3622 19.458 48.5315 19.585C48.7008 19.7119 48.8912 19.7754 49.1028 19.7754C50.6685 19.8177 52.0439 20.389 53.2288 21.4893C54.4137 22.5895 55.0907 23.9225 55.26 25.4883C55.26 25.6575 55.3023 25.8162 55.387 25.9643C55.4716 26.1125 55.5986 26.2288 55.7678 26.3135C55.8948 26.3981 56.0429 26.451 56.2122 26.4722C56.3814 26.4933 56.5507 26.4616 56.72 26.3769C57.0585 26.25 57.3971 26.2077 57.7356 26.25C58.0741 26.2923 58.3915 26.4193 58.6877 26.6309C58.984 26.8424 59.2167 27.1069 59.386 27.4243C59.5553 27.7417 59.6399 28.0697 59.6399 28.4082C59.6399 28.6198 59.6082 28.8102 59.5447 28.9795C59.4812 29.1488 59.4071 29.318 59.3225 29.4873H5.43091C5.43091 29.1488 5.51554 28.8208 5.68481 28.5034C5.85409 28.186 6.08683 27.9215 6.38306 27.71C6.67928 27.4984 7.00724 27.3714 7.36694 27.3291C7.72664 27.2868 8.05461 27.3291 8.35083 27.456ZM33.6145 59.8291V36.0254H46.5637L45.6116 59.8291H33.6145ZM31.4563 59.8291H19.5227L18.5071 36.0254H31.4563V59.8291ZM16.3489 36.0254L17.301 59.8291H6.44653L4.47876 36.0254H16.3489ZM8.73169 69.6045C8.73169 70.4085 8.45662 71.1173 7.90649 71.731C7.35636 72.3446 6.65812 72.7148 5.81177 72.8418C5.00773 72.9264 4.26717 72.7254 3.59009 72.2388C2.913 71.7521 2.46867 71.1068 2.25708 70.3027C2.08781 69.4987 2.20418 68.737 2.6062 68.0176C3.00822 67.2982 3.59009 66.8115 4.35181 66.5576V69.6045C4.35181 69.9007 4.4576 70.1546 4.66919 70.3662C4.88078 70.5778 5.13468 70.6836 5.43091 70.6836C5.72713 70.6836 5.98104 70.5778 6.19263 70.3662C6.40422 70.1546 6.51001 69.9007 6.51001 69.6045V66.5576C7.18709 66.7692 7.71606 67.1501 8.09692 67.7002C8.47778 68.2503 8.68937 68.8851 8.73169 69.6045ZM49.4836 63.5742C49.399 63.7435 49.2721 63.881 49.1028 63.9868C48.9335 64.0926 48.7431 64.1455 48.5315 64.1455H16.5393C16.3277 64.1455 16.1373 64.0926 15.968 63.9868C15.7987 63.881 15.6718 63.7435 15.5872 63.5742L14.762 61.9873H50.3088L49.4836 63.5742ZM62.8772 69.6045C62.8772 70.4085 62.6021 71.1173 62.052 71.731C61.5019 72.3446 60.8248 72.7148 60.0208 72.8418C59.1744 72.9264 58.4127 72.7254 57.7356 72.2388C57.0585 71.7521 56.6353 71.1068 56.4661 70.3027C56.2545 69.4987 56.3497 68.737 56.7517 68.0176C57.1537 67.2982 57.7568 66.8115 58.5608 66.5576V69.6045C58.5608 69.9007 58.6666 70.1546 58.8782 70.3662C59.0898 70.5778 59.3437 70.6836 59.6399 70.6836C59.9361 70.6836 60.19 70.5778 60.4016 70.3662C60.6132 70.1546 60.719 69.9007 60.719 69.6045V66.5576C61.3538 66.7692 61.8722 67.1501 62.2742 67.7002C62.6762 68.2503 62.8772 68.8851 62.8772 69.6045ZM58.6243 59.8291H47.7698L48.7219 36.0254H60.592L58.6243 59.8291ZM2.1936 33.8037V31.6455H62.8772V33.8037H2.1936ZM40.0891 19.7754C40.0891 20.0716 39.9833 20.3255 39.7717 20.5371C39.5601 20.7487 39.3062 20.8545 39.01 20.8545C38.7138 20.8545 38.4599 20.7487 38.2483 20.5371C38.0367 20.3255 37.9309 20.0716 37.9309 19.7754C37.9309 19.4792 38.0367 19.2253 38.2483 19.0137C38.4599 18.8021 38.7138 18.6963 39.01 18.6963C39.3062 18.6963 39.5601 18.8021 39.7717 19.0137C39.9833 19.2253 40.0891 19.4792 40.0891 19.7754ZM20.6018 25.1709C20.6018 25.4671 20.496 25.721 20.2844 25.9326C20.0728 26.1442 19.8189 26.25 19.5227 26.25C19.2265 26.25 18.9726 26.1442 18.761 25.9326C18.5494 25.721 18.4436 25.4671 18.4436 25.1709C18.4436 24.8747 18.5494 24.6208 18.761 24.4092C18.9726 24.1976 19.2265 24.0918 19.5227 24.0918C19.8189 24.0918 20.0728 24.1976 20.2844 24.4092C20.496 24.6208 20.6018 24.8747 20.6018 25.1709ZM26.0608 20.8545C26.0608 21.1507 25.955 21.4046 25.7434 21.6162C25.5318 21.8278 25.2779 21.9336 24.9817 21.9336C24.6431 21.9336 24.3681 21.8278 24.1565 21.6162C23.9449 21.4046 23.8391 21.1507 23.8391 20.8545C23.8391 20.5583 23.9449 20.3044 24.1565 20.0928C24.3681 19.8812 24.6431 19.7754 24.9817 19.7754C25.2779 19.7754 25.5318 19.8812 25.7434 20.0928C25.955 20.3044 26.0608 20.5583 26.0608 20.8545ZM32.5354 26.25C32.5354 26.5462 32.4296 26.8001 32.218 27.0117C32.0064 27.2233 31.7525 27.3291 31.4563 27.3291C31.1601 27.3291 30.9062 27.2233 30.6946 27.0117C30.483 26.8001 30.3772 26.5462 30.3772 26.25C30.3772 25.9538 30.483 25.6999 30.6946 25.4883C30.9062 25.2767 31.1601 25.1709 31.4563 25.1709C31.7525 25.1709 32.0064 25.2767 32.218 25.4883C32.4296 25.6999 32.5354 25.9538 32.5354 26.25ZM32.5354 19.7754C32.5354 20.0716 32.4296 20.3255 32.218 20.5371C32.0064 20.7487 31.7525 20.8545 31.4563 20.8545C31.1601 20.8545 30.9062 20.7487 30.6946 20.5371C30.483 20.3255 30.3772 20.0716 30.3772 19.7754C30.3772 19.4792 30.483 19.2253 30.6946 19.0137C30.9062 18.8021 31.1601 18.6963 31.4563 18.6963C31.7525 18.6963 32.0064 18.8021 32.218 19.0137C32.4296 19.2253 32.5354 19.4792 32.5354 19.7754ZM43.3899 26.25C43.3899 26.5462 43.2841 26.8001 43.0725 27.0117C42.8609 27.2233 42.607 27.3291 42.3108 27.3291C42.0146 27.3291 41.7607 27.2233 41.5491 27.0117C41.3375 26.8001 41.2317 26.5462 41.2317 26.25C41.2317 25.9538 41.3375 25.6999 41.5491 25.4883C41.7607 25.2767 42.0146 25.1709 42.3108 25.1709C42.607 25.1709 42.8609 25.2767 43.0725 25.4883C43.2841 25.6999 43.3899 25.9538 43.3899 26.25ZM48.7854 24.0918C48.7854 24.388 48.6796 24.6419 48.468 24.8535C48.2564 25.0651 48.0025 25.1709 47.7063 25.1709C47.4101 25.1709 47.1562 25.0651 46.9446 24.8535C46.733 24.6419 46.6272 24.388 46.6272 24.0918C46.6272 23.7956 46.733 23.5417 46.9446 23.3301C47.1562 23.1185 47.4101 23.0127 47.7063 23.0127C48.0025 23.0127 48.2564 23.1185 48.468 23.3301C48.6796 23.5417 48.7854 23.7956 48.7854 24.0918ZM4.66919 19.458C4.88078 19.6696 5.13468 19.7754 5.43091 19.7754C5.72713 19.7754 5.98104 19.6696 6.19263 19.458L7.27173 18.3789C7.48332 18.1673 7.58911 17.9134 7.58911 17.6172C7.58911 17.321 7.48332 17.0671 7.27173 16.8555C7.06014 16.6439 6.80623 16.5381 6.51001 16.5381C6.21379 16.5381 5.95988 16.6227 5.74829 16.792L5.43091 17.1094L5.11353 16.792C4.90194 16.6227 4.64803 16.5381 4.35181 16.5381C4.05558 16.5381 3.80168 16.6439 3.59009 16.8555C3.3785 17.0671 3.27271 17.321 3.27271 17.6172C3.27271 17.9134 3.3785 18.1673 3.59009 18.3789L4.66919 19.458ZM11.2073 13.999C11.4189 14.2106 11.6728 14.3164 11.969 14.3164C12.2652 14.3164 12.5191 14.2106 12.7307 13.999L13.8098 12.9199C14.0214 12.7083 14.1272 12.4544 14.1272 12.1582C14.1272 11.862 14.0214 11.6081 13.8098 11.3965C13.5982 11.1849 13.3443 11.0791 13.0481 11.0791C12.7519 11.0791 12.498 11.1849 12.2864 11.3965L11.969 11.7139L11.6516 11.3965C11.44 11.1849 11.1861 11.0791 10.8899 11.0791C10.5937 11.0791 10.3398 11.1849 10.1282 11.3965C9.91659 11.6081 9.81079 11.862 9.81079 12.1582C9.81079 12.4544 9.91659 12.7083 10.1282 12.9199L11.2073 13.999ZM55.5774 17.2363C55.789 17.4479 56.0535 17.5537 56.3708 17.5537C56.6882 17.5537 56.9527 17.4479 57.1643 17.2363L58.2434 16.1572C58.3704 16.0303 58.455 15.8716 58.4973 15.6811C58.5396 15.4907 58.5396 15.3109 58.4973 15.1416C58.455 14.93 58.3704 14.7607 58.2434 14.6338C58.1165 14.5068 57.9472 14.4222 57.7356 14.3799C57.5663 14.2952 57.3865 14.2847 57.196 14.3481C57.0056 14.4116 56.8258 14.5068 56.6565 14.6338L56.3391 14.9512L56.0217 14.6338C55.8101 14.4222 55.5562 14.327 55.26 14.3481C54.9638 14.3693 54.731 14.4645 54.5618 14.6338C54.3502 14.8454 54.2338 15.0993 54.2126 15.3955C54.1915 15.6917 54.2867 15.9456 54.4983 16.1572L55.5774 17.2363Z" fill="white"/>
</g>
<defs>
<clipPath id="clip0_238_20">
<rect width="65" height="65" fill="white" transform="matrix(1 0 0 -1 0.0100098 75)"/>
</clipPath>
</defs>
</svg>
