<svg width="18" height="14" viewBox="0 0 18 14" fill="none" xmlns="http://www.w3.org/2000/svg">
<path d="M16.418 0.144531H1.58203C1.46484 0.144531 1.34766 0.15918 1.23047 0.188477C1.11328 0.217773 1.00195 0.255859 0.896484 0.302734L8.96484 8.37109L10.7754 6.63086L17.1035 0.302734C16.998 0.255859 16.8867 0.217773 16.7695 0.188477C16.6523 0.15918 16.5352 0.144531 16.418 0.144531ZM17.8418 1.04102L11.8828 7L17.8418 12.959C17.8887 12.8535 17.9268 12.7422 17.9561 12.625C17.9854 12.5078 18 12.3906 18 12.2734V1.72656C18 1.60938 17.9854 1.49219 17.9561 1.375C17.9268 1.25781 17.8887 1.14648 17.8418 1.04102ZM0.158203 1.04102C0.111328 1.14648 0.0732422 1.25781 0.0439453 1.375C0.0146484 1.49219 0 1.60938 0 1.72656V12.2734C0 12.3906 0.0146484 12.5078 0.0439453 12.625C0.0732422 12.7422 0.111328 12.8535 0.158203 12.959L6.11719 7L0.158203 1.04102ZM11.1445 7.73828L9.33398 9.47852C9.28711 9.53711 9.23145 9.57812 9.16699 9.60156C9.10254 9.625 9.03516 9.63672 8.96484 9.63672C8.89453 9.63672 8.82715 9.625 8.7627 9.60156C8.69824 9.57812 8.64258 9.53711 8.5957 9.47852L6.85547 7.73828L0.896484 13.6973C1.00195 13.7441 1.11328 13.7822 1.23047 13.8115C1.34766 13.8408 1.46484 13.8555 1.58203 13.8555H16.418C16.5352 13.8555 16.6523 13.8408 16.7695 13.8115C16.8867 13.7822 16.998 13.7441 17.1035 13.6973L11.1445 7.73828Z" fill="#FDC400"/>
</svg>
