<svg width="50" height="50" viewBox="0 0 50 50" fill="none" xmlns="http://www.w3.org/2000/svg">
<rect width="50" height="50" rx="25" fill="#006940"/>
<g clip-path="url(#clip0_238_191)">
<path d="M24.751 17.7344C26.1084 17.7441 27.334 18.0762 28.4277 18.7305C28.9648 19.0527 29.4507 19.4312 29.8853 19.8657C30.3198 20.3003 30.6934 20.7812 31.0059 21.3086L31.0205 21.3379C31.665 22.4414 31.9971 23.6719 32.0166 25.0293C31.9775 26.8945 31.3916 28.4863 30.2588 29.8047C29.9756 30.127 29.6729 30.4248 29.3506 30.6982C29.0283 30.9619 28.6938 31.1963 28.3472 31.4014C28.0005 31.6064 27.6416 31.7773 27.2705 31.9141C26.9092 32.0605 26.5381 32.1729 26.1572 32.251V27.0215H27.5781L27.9004 24.9707H25.7471V23.6377C25.7471 23.6279 25.7471 23.6182 25.7471 23.6084C25.7471 23.5986 25.7471 23.5889 25.7471 23.5791C25.7471 23.4424 25.769 23.313 25.813 23.1909C25.8569 23.0688 25.918 22.959 25.9961 22.8613C26.1719 22.6465 26.4746 22.5293 26.9043 22.5098H28.208V20.7227C28.1885 20.7129 28.0127 20.6885 27.6807 20.6494C27.5049 20.6299 27.3193 20.6128 27.124 20.5981C26.9287 20.5835 26.7334 20.5762 26.5381 20.5762H26.5234C25.6641 20.5762 24.9805 20.8203 24.4727 21.3086C23.9648 21.7969 23.7061 22.5 23.6963 23.418V24.9707H22.0557V27.0215H23.6963V32.251C23.2373 32.1729 22.7979 32.0605 22.3779 31.9141C21.9678 31.7773 21.5796 31.6064 21.2134 31.4014C20.8472 31.1963 20.498 30.9619 20.166 30.6982C19.8438 30.4248 19.541 30.127 19.2578 29.8047C18.9746 29.4727 18.7256 29.126 18.5107 28.7646C18.2959 28.4033 18.1152 28.0225 17.9688 27.6221C17.8223 27.2217 17.71 26.8066 17.6318 26.377C17.5537 25.9473 17.5098 25.498 17.5 25.0293C17.5098 23.6719 17.8369 22.4414 18.4814 21.3379C18.8037 20.8008 19.1821 20.3125 19.6167 19.873C20.0513 19.4336 20.5322 19.0576 21.0596 18.7451L21.0889 18.7305C22.1826 18.0762 23.4033 17.7441 24.751 17.7344Z" fill="white"/>
</g>
<defs>
<clipPath id="clip0_238_191">
<rect width="15" height="50" fill="white" transform="matrix(1 0 0 -1 17.5 50)"/>
</clipPath>
</defs>
</svg>
