<svg width="50" height="50" viewBox="0 0 50 50" fill="none" xmlns="http://www.w3.org/2000/svg">
<rect width="50" height="50" rx="25" fill="#006940"/>
<g clip-path="url(#clip0_238_197)">
<path d="M25 21.1475C24.4727 21.1475 23.9746 21.25 23.5059 21.4551C23.0371 21.6504 22.6294 21.9238 22.2827 22.2754C21.936 22.627 21.6602 23.0371 21.4551 23.5059C21.25 23.9648 21.1475 24.4629 21.1475 25C21.1475 25.5273 21.25 26.0254 21.4551 26.4941C21.6602 26.9629 21.936 27.3706 22.2827 27.7173C22.6294 28.064 23.0371 28.3398 23.5059 28.5449C23.9746 28.75 24.4727 28.8525 25 28.8525C25.5371 28.8525 26.0352 28.75 26.4941 28.5449C26.9629 28.3398 27.373 28.064 27.7246 27.7173C28.0762 27.3706 28.3496 26.9629 28.5449 26.4941C28.75 26.0254 28.8525 25.5273 28.8525 25C28.8525 24.4629 28.75 23.9648 28.5449 23.5059C28.3496 23.0371 28.0762 22.627 27.7246 22.2754C27.373 21.9238 26.9629 21.6504 26.4941 21.4551C26.0352 21.25 25.5371 21.1475 25 21.1475ZM25 27.4902C24.3066 27.4902 23.7183 27.2461 23.2349 26.7578C22.7515 26.2695 22.5098 25.6836 22.5098 25C22.5098 24.3066 22.7539 23.7158 23.2422 23.2275C23.7305 22.7393 24.3164 22.4951 25 22.4951C25.6934 22.4951 26.2842 22.7393 26.7725 23.2275C27.2607 23.7158 27.5049 24.3066 27.5049 25C27.5049 25.6836 27.2607 26.2695 26.7725 26.7578C26.2842 27.2461 25.6934 27.4902 25 27.4902ZM28.0908 17.5439C27.749 17.5342 27.2998 17.5244 26.7432 17.5146C26.1865 17.5049 25.6079 17.5 25.0073 17.5C24.4067 17.5 23.8281 17.5049 23.2715 17.5146C22.7148 17.5244 22.2607 17.5342 21.9092 17.5439C21.3037 17.5732 20.7373 17.6758 20.21 17.8516C19.6826 18.0273 19.1992 18.3301 18.7598 18.7598C18.3984 19.1211 18.1299 19.5166 17.9541 19.9463C17.7783 20.376 17.6587 20.8447 17.5952 21.3525C17.5317 21.8604 17.5 22.417 17.5 23.0225C17.5098 23.6279 17.5146 24.2871 17.5146 25C17.5146 25.7324 17.5098 26.4014 17.5 27.0068C17.5 27.6123 17.5342 28.1689 17.6025 28.6768C17.6709 29.1846 17.793 29.6484 17.9688 30.0684C18.1445 30.4883 18.4082 30.8789 18.7598 31.2402C19.1211 31.6016 19.5215 31.8701 19.9609 32.0459C20.3906 32.2217 20.8618 32.3413 21.3745 32.4048C21.8872 32.4683 22.4414 32.5 23.0371 32.5C23.6426 32.4902 24.2969 32.4854 25 32.4854C26.4453 32.4854 27.4976 32.4707 28.1567 32.4414C28.8159 32.4121 29.3994 32.2998 29.9072 32.1045C30.2588 31.9678 30.5811 31.7871 30.874 31.5625C31.1768 31.3379 31.4404 31.0596 31.665 30.7275C31.8896 30.3955 32.0703 30.0146 32.207 29.585C32.3437 29.1455 32.4268 28.6475 32.4561 28.0908C32.4658 27.7393 32.4756 27.2852 32.4854 26.7285C32.4951 26.1719 32.5 25.5933 32.5 24.9927C32.5 24.3921 32.4951 23.8135 32.4854 23.2568C32.4756 22.7002 32.4658 22.251 32.4561 21.9092C32.4268 21.2451 32.3145 20.6543 32.1191 20.1367C31.9238 19.6094 31.6455 19.1602 31.2842 18.7891C30.9229 18.418 30.4785 18.125 29.9512 17.9102C29.4141 17.7051 28.7939 17.583 28.0908 17.5439ZM30.2734 30.2734C29.8047 30.752 29.1846 31.0156 28.4131 31.0645C27.6416 31.1133 26.499 31.1377 24.9854 31.1377C23.4229 31.1377 22.2632 31.1084 21.5063 31.0498C20.7495 30.9912 20.1465 30.7324 19.6973 30.2734C19.4336 30.0098 19.2383 29.707 19.1113 29.3652C18.9941 29.0234 18.9136 28.6328 18.8696 28.1934C18.8257 27.7539 18.8086 27.2705 18.8184 26.7432C18.8281 26.2061 18.833 25.6201 18.833 24.9854C18.833 24.126 18.833 23.3301 18.833 22.5977C18.833 21.875 18.9185 21.2427 19.0894 20.7007C19.2603 20.1587 19.5605 19.7314 19.9902 19.4189C20.4199 19.0967 21.0693 18.916 21.9385 18.877C22.3389 18.8574 22.6953 18.8452 23.0078 18.8403C23.3203 18.8354 23.9746 18.833 24.9707 18.833L25 18.8477C25.8398 18.8477 26.6211 18.8477 27.3438 18.8477C28.0664 18.8477 28.7012 18.9355 29.248 19.1113C29.7949 19.2871 30.2295 19.5898 30.5518 20.0195C30.8838 20.4492 31.0693 21.0986 31.1084 21.9678C31.1279 22.3584 31.1401 22.71 31.145 23.0225C31.1499 23.335 31.1523 23.9941 31.1523 25C31.1523 26.543 31.123 27.6929 31.0645 28.4497C31.0059 29.2065 30.7422 29.8145 30.2734 30.2734ZM29.9072 21.001C29.9072 21.2451 29.8193 21.4551 29.6436 21.6309C29.4678 21.8066 29.2529 21.8945 28.999 21.8945C28.7549 21.8945 28.5449 21.8066 28.3691 21.6309C28.1934 21.4551 28.1055 21.2451 28.1055 21.001C28.1055 20.7471 28.1934 20.5322 28.3691 20.3564C28.5449 20.1807 28.7549 20.0928 28.999 20.0928C29.2529 20.0928 29.4678 20.1807 29.6436 20.3564C29.8193 20.5322 29.9072 20.7471 29.9072 21.001Z" fill="white"/>
</g>
<defs>
<clipPath id="clip0_238_197">
<rect width="15" height="50" fill="white" transform="matrix(1 0 0 -1 17.5 50)"/>
</clipPath>
</defs>
</svg>
