<svg width="14" height="18" viewBox="0 0 14 18" fill="none" xmlns="http://www.w3.org/2000/svg">
<path d="M6.75 0C5.82422 0 4.95117 0.175781 4.13086 0.527344C3.31055 0.878906 2.59277 1.3623 1.97754 1.97754C1.3623 2.59277 0.878906 3.31055 0.527344 4.13086C0.175781 4.95117 0 5.82422 0 6.75C0 7.99219 0.328125 9.26367 0.984375 10.5645C1.62891 11.8535 2.34961 13.0312 3.14648 14.0977C3.94336 15.1641 4.68164 16.0488 5.36133 16.752C6.05273 17.4551 6.42773 17.8359 6.48633 17.8945C6.52148 17.9297 6.5625 17.9561 6.60938 17.9736C6.65625 17.9912 6.70312 18 6.75 18C6.79688 18 6.84375 17.9912 6.89062 17.9736C6.9375 17.9561 6.97852 17.9297 7.01367 17.8945C7.07227 17.8359 7.44727 17.4551 8.13867 16.752C8.81836 16.0488 9.55664 15.1641 10.3535 14.0977C11.1504 13.0312 11.8711 11.8535 12.5156 10.5645C13.1719 9.26367 13.5 7.99219 13.5 6.75C13.5 5.82422 13.3242 4.95117 12.9727 4.13086C12.6211 3.31055 12.1377 2.59277 11.5225 1.97754C10.9072 1.3623 10.1895 0.878906 9.36914 0.527344C8.54883 0.175781 7.67578 0 6.75 0ZM6.75 10.4941C6.23438 10.4941 5.74805 10.4004 5.29102 10.2129C4.83398 10.0137 4.43555 9.74414 4.0957 9.4043C3.75586 9.06445 3.48633 8.66602 3.28711 8.20898C3.09961 7.75195 3.00586 7.26562 3.00586 6.75C3.00586 6.23438 3.09961 5.74805 3.28711 5.29102C3.48633 4.83398 3.75586 4.43555 4.0957 4.0957C4.43555 3.75586 4.83398 3.48633 5.29102 3.28711C5.74805 3.09961 6.23438 3.00586 6.75 3.00586C7.26562 3.00586 7.75195 3.09961 8.20898 3.28711C8.66602 3.48633 9.06445 3.75586 9.4043 4.0957C9.74414 4.43555 10.0137 4.83398 10.2129 5.29102C10.4004 5.74805 10.4941 6.23438 10.4941 6.75C10.4941 7.26562 10.4004 7.75195 10.2129 8.20898C10.0137 8.66602 9.74414 9.06445 9.4043 9.4043C9.06445 9.74414 8.66602 10.0137 8.20898 10.2129C7.75195 10.4004 7.26562 10.4941 6.75 10.4941Z" fill="#FDC400"/>
</svg>
