<svg width="18" height="18" viewBox="0 0 18 18" fill="none" xmlns="http://www.w3.org/2000/svg">
<path d="M13.6802 11.9004C13.3755 11.6191 13.0532 11.4785 12.7134 11.4785C12.3735 11.4785 12.0571 11.6191 11.7641 11.9004C11.5415 12.123 11.3188 12.3457 11.0962 12.5684C10.8735 12.791 10.6509 13.0137 10.4282 13.2363C10.3696 13.3066 10.3139 13.3477 10.2612 13.3594C10.2085 13.3711 10.147 13.3535 10.0766 13.3066C9.92429 13.2246 9.77488 13.1484 9.6284 13.0781C9.48191 13.0078 9.33836 12.9316 9.19773 12.8496C8.5532 12.4395 7.95554 11.9795 7.40476 11.4697C6.85398 10.96 6.33836 10.4062 5.85789 9.80859C5.62351 9.52734 5.40379 9.22852 5.19871 8.91211C4.99363 8.5957 4.81492 8.26172 4.66258 7.91016C4.63914 7.83984 4.63035 7.77832 4.63621 7.72559C4.64207 7.67285 4.67429 7.61719 4.73289 7.55859C4.95554 7.33594 5.17527 7.11621 5.39207 6.89941C5.60886 6.68262 5.82859 6.46289 6.05125 6.24023C6.35593 5.93555 6.50828 5.61035 6.50828 5.26465C6.50828 4.91895 6.35593 4.59375 6.05125 4.28906C5.87547 4.11328 5.69968 3.9375 5.5239 3.76172C5.34812 3.58594 5.17234 3.41016 4.99656 3.23438C4.82078 3.05859 4.645 2.87988 4.46922 2.69824C4.29343 2.5166 4.11179 2.33789 3.92429 2.16211C3.63133 1.86914 3.31492 1.72266 2.97508 1.72266C2.63523 1.72266 2.31883 1.86914 2.02586 2.16211C1.79148 2.38477 1.5659 2.60742 1.3491 2.83008C1.1323 3.05273 0.912575 3.27539 0.689919 3.49805C0.467263 3.69727 0.3032 3.91699 0.197732 4.15723C0.092263 4.39746 0.0278098 4.66406 0.00437234 4.95703C-0.0307839 5.42578 -0.00148704 5.87988 0.092263 6.31934C0.186013 6.75879 0.314919 7.19531 0.478982 7.62891C0.807107 8.51953 1.21726 9.36035 1.70945 10.1514C2.20164 10.9424 2.75242 11.7012 3.36179 12.4277C3.77195 12.9199 4.19968 13.3828 4.645 13.8164C5.10203 14.25 5.57664 14.6602 6.06883 15.0469C6.56101 15.4336 7.07078 15.791 7.59812 16.1191C8.13718 16.459 8.69383 16.7695 9.26804 17.0508C9.78367 17.2969 10.311 17.5078 10.8501 17.6836C11.3891 17.8594 11.9516 17.9648 12.5376 18C12.936 18.0234 13.3081 17.9766 13.6538 17.8594C13.9995 17.7422 14.313 17.5254 14.5942 17.209C14.7817 16.998 14.9809 16.793 15.1919 16.5937C15.4028 16.3945 15.6079 16.1895 15.8071 15.9785C16.1118 15.6855 16.2641 15.3662 16.2641 15.0205C16.2641 14.6748 16.1118 14.3496 15.8071 14.0449C15.4555 13.6934 15.1011 13.3389 14.7436 12.9814C14.3862 12.624 14.0317 12.2637 13.6802 11.9004ZM12.9595 8.92969L14.3305 8.68359C14.2251 8.05078 14.0259 7.4502 13.7329 6.88184C13.4399 6.31348 13.0649 5.80078 12.6079 5.34375C12.1274 4.86328 11.5884 4.47656 10.9907 4.18359C10.393 3.89063 9.76023 3.69727 9.09226 3.60352L8.8989 4.99219C9.41453 5.0625 9.90379 5.21191 10.3667 5.44043C10.8296 5.66895 11.2485 5.9707 11.6235 6.3457C11.9751 6.69727 12.2651 7.09277 12.4936 7.53223C12.7221 7.97168 12.8774 8.4375 12.9595 8.92969ZM15.1216 2.91797C14.7231 2.51953 14.2954 2.15625 13.8384 1.82813C13.393 1.5 12.9243 1.21582 12.4321 0.975586C11.9399 0.735352 11.4302 0.533203 10.9028 0.369141C10.3755 0.205078 9.83054 0.0820305 9.26804 -7.15256e-07L9.07468 1.38867C9.55515 1.45898 10.0239 1.56445 10.4809 1.70508C10.938 1.8457 11.3803 2.02148 11.8081 2.23242C12.2358 2.44336 12.643 2.68945 13.0298 2.9707C13.4165 3.25195 13.7856 3.5625 14.1372 3.90234C14.7817 4.55859 15.3149 5.29102 15.7368 6.09961C16.1587 6.9082 16.4458 7.76953 16.5981 8.68359L17.9868 8.45508C17.893 7.92773 17.7641 7.41211 17.6001 6.9082C17.436 6.4043 17.2309 5.9209 16.9848 5.45801C16.7387 4.99512 16.4634 4.55273 16.1587 4.13086C15.8423 3.69727 15.4966 3.29297 15.1216 2.91797Z" fill="#FDC400"/>
</svg>
