<svg width="50" height="50" viewBox="0 0 50 50" fill="none" xmlns="http://www.w3.org/2000/svg">
<rect width="50" height="50" rx="25" fill="#006940"/>
<g clip-path="url(#clip0_238_194)">
<path d="M23.7988 17.5C22.7734 17.5 21.8652 17.6514 21.0742 17.9541C20.293 18.2568 19.6362 18.6646 19.104 19.1772C18.5718 19.6899 18.1738 20.2783 17.9102 20.9424C17.6367 21.5967 17.5 22.2852 17.5 23.0078C17.5 23.3398 17.5439 23.6865 17.6318 24.0479C17.7197 24.4092 17.8491 24.751 18.02 25.0732C18.1909 25.3955 18.3936 25.6836 18.6279 25.9375C18.8721 26.2012 19.1406 26.3965 19.4336 26.5234C19.6094 26.6016 19.7144 26.5698 19.7485 26.4282C19.7827 26.2866 19.873 25.9375 20.0195 25.3809C20.0293 25.332 20.0317 25.2856 20.0269 25.2417C20.022 25.1978 20 25.1562 19.9609 25.1172C19.5312 24.6191 19.2969 24.0283 19.2578 23.3447C19.209 22.6514 19.3384 21.9897 19.646 21.3599C19.9536 20.73 20.4395 20.1953 21.1035 19.7559C21.7578 19.3164 22.5732 19.0967 23.5498 19.0967C24.9756 19.0967 25.9961 19.5068 26.6113 20.3271C27.2363 21.1475 27.5464 22.0483 27.5415 23.0298C27.5366 24.0112 27.2607 24.9121 26.7139 25.7324C26.1768 26.5527 25.4541 26.9629 24.5459 26.9629C24.0771 26.9629 23.6963 26.8018 23.4033 26.4795C23.1104 26.1572 23.0176 25.7666 23.125 25.3076C23.2617 24.7705 23.4277 24.231 23.623 23.689C23.8184 23.147 23.916 22.6807 23.916 22.29C23.916 21.792 23.7646 21.4404 23.4619 21.2354C23.1592 21.0205 22.8247 20.9521 22.4585 21.0303C22.0923 21.1084 21.7578 21.3281 21.4551 21.6895C21.1426 22.0508 20.9863 22.5586 20.9863 23.2129C20.9863 23.6133 21.0352 23.938 21.1328 24.187C21.2305 24.436 21.2793 24.5605 21.2793 24.5605C21.2793 24.5605 21.2256 24.7656 21.1182 25.1758C21.0205 25.5762 20.9082 26.0376 20.7812 26.5601C20.6543 27.0825 20.5273 27.5879 20.4004 28.0762C20.2832 28.5742 20.2002 28.9111 20.1514 29.0869C20.0049 29.6924 19.978 30.376 20.0708 31.1377C20.1636 31.8994 20.2148 32.3242 20.2246 32.4121C20.2344 32.4609 20.2588 32.4902 20.2979 32.5C20.3369 32.5098 20.3711 32.4951 20.4004 32.4561C20.4492 32.3975 20.6812 32.0435 21.0962 31.394C21.5112 30.7446 21.7969 30.1221 21.9531 29.5264C22.0117 29.3115 22.1265 28.8989 22.2974 28.2886C22.4683 27.6782 22.5537 27.373 22.5537 27.373C22.71 27.6562 22.9932 27.9004 23.4033 28.1055C23.8135 28.3105 24.2578 28.4131 24.7363 28.4131C25.459 28.4131 26.123 28.2617 26.7285 27.959C27.334 27.666 27.8564 27.2632 28.2959 26.7505C28.7354 26.2378 29.0771 25.6396 29.3213 24.9561C29.5654 24.2725 29.6875 23.5352 29.6875 22.7441C29.6875 22.002 29.5361 21.3086 29.2334 20.6641C28.9307 20.0195 28.5132 19.4629 27.981 18.9941C27.4487 18.5254 26.8262 18.1592 26.1133 17.8955C25.4004 17.6318 24.6289 17.5 23.7988 17.5Z" fill="white"/>
</g>
<defs>
<clipPath id="clip0_238_194">
<rect width="15" height="50" fill="white" transform="matrix(1 0 0 -1 17.5 50)"/>
</clipPath>
</defs>
</svg>
