<svg width="50" height="50" viewBox="0 0 50 50" fill="none" xmlns="http://www.w3.org/2000/svg">
<rect width="50" height="50" rx="25" fill="#006940"/>
<path d="M31.0117 21.1572C30.7871 21.2549 30.5576 21.3379 30.3232 21.4062C30.0889 21.4746 29.8447 21.5234 29.5908 21.5527C29.8447 21.3965 30.0669 21.2012 30.2573 20.9668C30.4478 20.7324 30.5869 20.4688 30.6748 20.1758C30.4307 20.3223 30.1792 20.4443 29.9204 20.542C29.6616 20.6396 29.3955 20.7178 29.1221 20.7764C28.8975 20.542 28.6289 20.354 28.3164 20.2124C28.0039 20.0708 27.6719 20 27.3203 20C26.6367 20 26.0557 20.2417 25.5771 20.7251C25.0986 21.2085 24.8594 21.7871 24.8594 22.4609C24.8594 22.5586 24.8643 22.6538 24.874 22.7466C24.8838 22.8394 24.8984 22.9297 24.918 23.0176C24.4102 22.998 23.917 22.9199 23.4385 22.7832C22.96 22.6562 22.5059 22.4805 22.0762 22.2559C21.6465 22.0313 21.2461 21.7676 20.875 21.4648C20.5039 21.1621 20.167 20.8252 19.8643 20.4541C19.4248 21.2354 19.3589 21.9238 19.6665 22.5195C19.9741 23.1152 20.2891 23.5205 20.6113 23.7354C20.416 23.7354 20.2231 23.7085 20.0327 23.6548C19.8423 23.6011 19.6641 23.5303 19.498 23.4424C19.498 24.0479 19.686 24.5776 20.062 25.0317C20.438 25.4858 20.9043 25.7715 21.4609 25.8887C21.3438 25.918 21.1704 25.9424 20.9409 25.9619C20.7114 25.9814 20.5186 25.9717 20.3623 25.9326C20.5186 26.4209 20.8066 26.8262 21.2266 27.1484C21.6465 27.4707 22.1201 27.6318 22.6475 27.6318C22.2275 27.9639 21.7124 28.2373 21.1021 28.4521C20.4917 28.667 19.791 28.7354 19 28.6572C19.5469 29.0088 20.1401 29.2822 20.7798 29.4775C21.4194 29.6729 22.0859 29.7705 22.7793 29.7705C23.9121 29.7705 24.9131 29.5557 25.7822 29.126C26.6611 28.7061 27.3936 28.1592 27.9795 27.4854C28.5654 26.8115 29.0146 26.0645 29.3271 25.2441C29.6299 24.4141 29.7812 23.5937 29.7812 22.7832C29.7812 22.7246 29.7788 22.6709 29.7739 22.6221C29.769 22.5732 29.7666 22.5195 29.7666 22.4609C30.0205 22.2754 30.25 22.0728 30.4551 21.853C30.6602 21.6333 30.8457 21.4014 31.0117 21.1572Z" fill="white"/>
</svg>
