<svg width="16" height="16" viewBox="0 0 16 16" fill="none" xmlns="http://www.w3.org/2000/svg">
<path d="M8 0C6.89583 0 5.85938 0.208333 4.89062 0.625C3.92188 1.05208 3.07552 1.6276 2.35156 2.35156C1.6276 3.07552 1.05208 3.92188 0.625 4.89062C0.208333 5.85938 0 6.89583 0 8C0 9.10417 0.208333 10.1406 0.625 11.1094C1.05208 12.0781 1.6276 12.9245 2.35156 13.6484C3.07552 14.3724 3.92188 14.9479 4.89062 15.375C5.85938 15.7917 6.89583 16 8 16C9.10417 16 10.1406 15.7917 11.1094 15.375C12.0781 14.9479 12.9245 14.3724 13.6484 13.6484C14.3724 12.9245 14.9479 12.0781 15.375 11.1094C15.7917 10.1406 16 9.10417 16 8C16 6.89583 15.7917 5.85938 15.375 4.89062C14.9479 3.92188 14.3724 3.07552 13.6484 2.35156C12.9245 1.6276 12.0781 1.05208 11.1094 0.625C10.1406 0.208333 9.10417 0 8 0ZM11.4688 6.35938L7.26562 10.5469C7.20312 10.6094 7.13281 10.6562 7.05469 10.6875C6.97656 10.7188 6.89583 10.7344 6.8125 10.7344C6.72917 10.7344 6.64844 10.7188 6.57031 10.6875C6.49219 10.6562 6.42188 10.6094 6.35938 10.5469L4.53125 8.73438C4.40625 8.60938 4.34375 8.45573 4.34375 8.27344C4.34375 8.09115 4.40625 7.9375 4.53125 7.8125C4.66667 7.6875 4.82292 7.625 5 7.625C5.17708 7.625 5.32812 7.6875 5.45312 7.8125L6.8125 9.1875L10.5469 5.45312C10.6719 5.32812 10.8229 5.26562 11 5.26562C11.1771 5.26562 11.3333 5.32812 11.4688 5.45312C11.5938 5.57812 11.6562 5.72917 11.6562 5.90625C11.6562 6.08333 11.5938 6.23438 11.4688 6.35938Z" fill="#FDC400"/>
</svg>
